<svg width="138" height="47" viewBox="0 0 138 47" fill="none" xmlns="http://www.w3.org/2000/svg">
<path d="M126.91 0.000115358H10.987C10.5644 0.000115358 10.1469 0.000115358 9.72541 0.00242252C9.37269 0.00472967 9.02273 0.0114204 8.66655 0.017073C7.89279 0.0261847 7.12084 0.0943278 6.35743 0.22091C5.59508 0.350249 4.85661 0.594096 4.167 0.944204C3.47825 1.29729 2.84893 1.75608 2.30186 2.30393C1.75192 2.85019 1.29349 3.4816 0.944206 4.17388C0.593952 4.86484 0.35109 5.60527 0.22401 6.3696C0.0957122 7.13293 0.0266742 7.90506 0.0175152 8.67906C0.00679865 9.03275 0.00564634 9.38759 0 9.74139V36.4054C0.00564634 36.7636 0.00679865 37.1106 0.0175152 37.469C0.0266829 38.243 0.0957209 39.015 0.22401 39.7783C0.350749 40.543 0.593624 41.2838 0.944206 41.975C1.29332 42.6651 1.75181 43.294 2.30186 43.8373C2.84686 44.3875 3.47659 44.8466 4.167 45.197C4.8566 45.548 5.59499 45.7933 6.35743 45.9247C7.12097 46.0502 7.89284 46.1184 8.66655 46.1286C9.02261 46.1365 9.37269 46.141 9.72552 46.141C10.1469 46.1433 10.5644 46.1433 10.987 46.1433H126.91C127.324 46.1433 127.745 46.1433 128.159 46.141C128.51 46.141 128.87 46.1365 129.221 46.1286C129.993 46.1189 130.764 46.0508 131.526 45.9247C132.291 45.7924 133.032 45.5472 133.725 45.197C134.415 44.8464 135.044 44.3873 135.588 43.8373C136.137 43.2919 136.596 42.6634 136.95 41.975C137.298 41.2833 137.538 40.5426 137.663 39.7783C137.792 39.0149 137.863 38.243 137.877 37.4689C137.882 37.1106 137.882 36.7636 137.882 36.4054C137.891 35.9863 137.891 35.5696 137.891 35.1437V11.0009C137.891 10.5783 137.891 10.1593 137.882 9.74139C137.882 9.38759 137.882 9.03275 137.877 8.67895C137.863 7.90488 137.792 7.13292 137.663 6.36948C137.538 5.60568 137.297 4.86539 136.95 4.17399C136.239 2.78628 135.111 1.65669 133.725 0.944089C133.032 0.594839 132.291 0.351057 131.526 0.220795C130.764 0.0936742 129.994 0.0255266 129.221 0.0169576C128.87 0.0113051 128.51 0.00449896 128.159 0.00230716C127.745 0 127.324 0 126.91 0L126.91 0.000115358Z" fill="black"/>
<path d="M9.73095 45.1339C9.37984 45.1339 9.03725 45.1294 8.68891 45.1216C7.96733 45.1122 7.24743 45.0493 6.53512 44.9335C5.87093 44.819 5.22751 44.6059 4.62608 44.3014C4.03015 43.9994 3.48662 43.6034 3.0163 43.1286C2.53914 42.6595 2.14187 42.1153 1.84025 41.5177C1.53534 40.9162 1.32432 40.2714 1.21454 39.6059C1.09604 38.8909 1.03194 38.1678 1.0228 37.443C1.01542 37.1997 1.00586 36.3898 1.00586 36.3898V9.7413C1.00586 9.7413 1.016 8.94371 1.0228 8.70931C1.03158 7.98567 1.09533 7.26376 1.21351 6.54981C1.3235 5.88248 1.53469 5.2359 1.83979 4.63244C2.14025 4.03523 2.53526 3.49063 3.0095 3.01974C3.48324 2.54438 4.02854 2.14636 4.62551 1.84021C5.22556 1.5367 5.86777 1.32519 6.53063 1.21278C7.24529 1.09583 7.9677 1.03263 8.69179 1.0237L9.73152 1.0094H128.153L129.205 1.02405C129.923 1.03258 130.639 1.09529 131.347 1.21162C132.016 1.32548 132.665 1.5385 133.272 1.84367C134.468 2.46064 135.441 3.43676 136.055 4.63521C136.355 5.23453 136.563 5.87587 136.672 6.53746C136.791 7.25726 136.858 7.98483 136.872 8.71438C136.876 9.04108 136.876 9.39199 136.876 9.7413C136.885 10.1739 136.885 10.5856 136.885 11.0008V35.1436C136.885 35.5627 136.885 35.9716 136.876 36.3839C136.876 36.759 136.876 37.1027 136.871 37.4564C136.858 38.1729 136.792 38.8876 136.674 39.5945C136.566 40.2648 136.357 40.9146 136.052 41.521C135.748 42.1121 135.353 42.6516 134.882 43.1195C134.411 43.5969 133.866 43.9951 133.269 44.2991C132.664 44.6059 132.016 44.8197 131.347 44.9333C130.635 45.0498 129.915 45.1126 129.193 45.1214C128.848 45.1295 128.504 45.1336 128.159 45.1338L126.91 45.1361L9.73095 45.1339Z" fill="white"/>
<path d="M28.8041 22.9441C28.817 21.9428 29.0827 20.9611 29.5764 20.0903C30.0702 19.2194 30.7759 18.4877 31.628 17.9633C31.0867 17.1893 30.3726 16.5524 29.5424 16.1031C28.7122 15.6538 27.7887 15.4044 26.8454 15.3749C24.8333 15.1634 22.8825 16.5804 21.8571 16.5804C20.8119 16.5804 19.2331 15.3959 17.533 15.431C16.4334 15.4665 15.3617 15.7867 14.4224 16.3601C13.4832 16.9336 12.7083 17.7409 12.1733 18.7033C9.85574 22.7201 11.5844 28.6233 13.8044 31.8703C14.915 33.4601 16.213 35.2361 17.9116 35.1731C19.5737 35.1041 20.1945 34.112 22.2007 34.112C24.1884 34.112 24.7708 35.1731 26.5038 35.133C28.2873 35.1041 29.4111 33.5361 30.4827 31.9312C31.2808 30.7983 31.8948 29.5462 32.3022 28.2213C31.2661 27.7825 30.3818 27.0482 29.7598 26.1098C29.1377 25.1713 28.8054 24.0703 28.8041 22.9441ZM25.5309 13.2396C26.5034 12.0709 26.9825 10.5687 26.8664 9.05212C25.3807 9.20837 24.0084 9.91924 23.0229 11.0431C22.541 11.5921 22.1719 12.2308 21.9367 12.9227C21.7016 13.6146 21.6049 14.3461 21.6523 15.0754C22.3954 15.0831 23.1306 14.9218 23.8025 14.6038C24.4743 14.2858 25.0653 13.8193 25.531 13.2395L25.5309 13.2396ZM48.745 31.3079H43.2907L41.9809 35.1798H39.6705L44.8369 20.8546H47.2371L52.4034 35.1798H50.0538L48.745 31.3079ZM43.8556 29.5211H48.179L46.0477 23.2373H45.988L43.8556 29.5211ZM63.5608 29.9583C63.5608 33.2038 61.8255 35.289 59.207 35.289C58.5437 35.3237 57.884 35.1708 57.3035 34.8476C56.723 34.5244 56.2451 34.0442 55.9245 33.4617H55.875V38.6348H53.7334V24.7356H55.8063V26.4728H55.8457C56.181 25.8931 56.6669 25.4153 57.2519 25.0902C57.8368 24.7651 58.4989 24.6048 59.1676 24.6264C61.8154 24.6264 63.5608 26.7217 63.5608 29.9582V29.9583ZM61.3597 29.9583C61.3597 27.8438 60.2682 26.4536 58.6027 26.4536C56.9665 26.4536 55.866 27.873 55.866 29.9582C55.866 32.0627 56.9665 33.472 58.6027 33.472C60.2682 33.472 61.3597 32.092 61.3597 29.9582V29.9583ZM75.044 29.9583C75.044 33.2038 73.3082 35.289 70.6896 35.289C70.0263 35.3237 69.3666 35.1708 68.786 34.8476C68.2055 34.5244 67.7276 34.0442 67.4071 33.4617H67.3576V38.6348H65.2161V24.7356H67.2889V26.4728H67.3283C67.6636 25.8931 68.1495 25.4153 68.7345 25.0902C69.3194 24.7651 69.9815 24.6048 70.6502 24.6264C73.2981 24.6264 75.044 26.7217 75.044 29.9582V29.9583ZM72.8423 29.9583C72.8423 27.8438 71.7508 26.4536 70.0853 26.4536C68.449 26.4536 67.3486 27.873 67.3486 29.9582C67.3486 32.0627 68.449 33.472 70.0853 33.472C71.7508 33.472 72.8423 32.092 72.8423 29.9582V29.9583ZM82.632 31.1885C82.7906 32.609 84.1691 33.5418 86.0528 33.5418C87.8578 33.5418 89.1564 32.609 89.1564 31.3281C89.1564 30.2161 88.3732 29.5504 86.5188 29.0942L84.6643 28.6469C82.0367 28.0115 80.8168 26.7814 80.8168 24.7851C80.8168 22.3134 82.9684 20.6158 86.0225 20.6158C89.0473 20.6158 91.1201 22.3134 91.1899 24.7851H89.0282C88.8988 23.3556 87.7183 22.4926 85.9932 22.4926C84.2681 22.4926 83.0877 23.3657 83.0877 24.6364C83.0877 25.6492 83.8416 26.2452 85.686 26.7013L87.2625 27.0889C90.1985 27.7839 91.4172 28.9646 91.4172 31.0599C91.4172 33.74 89.2859 35.4185 85.8941 35.4185C82.7207 35.4185 80.5782 33.7793 80.4398 31.1884L82.632 31.1885ZM96.0411 22.2641V24.7356H98.025V26.4333H96.0411V32.1911C96.0411 33.0856 96.4383 33.5023 97.3105 33.5023C97.546 33.4982 97.7811 33.4817 98.0149 33.4527V35.1404C97.6228 35.2137 97.2242 35.2469 96.8254 35.2394C94.7133 35.2394 93.8895 34.4453 93.8895 32.4197V26.4333H92.3726V24.7356H93.8895V22.2641H96.0411ZM99.1728 29.9583C99.1728 26.6721 101.106 24.6072 104.121 24.6072C107.146 24.6072 109.07 26.6721 109.07 29.9583C109.07 33.2534 107.156 35.3093 104.121 35.3093C101.087 35.3093 99.1728 33.2534 99.1728 29.9583ZM106.888 29.9583C106.888 27.7041 105.856 26.3736 104.121 26.3736C102.386 26.3736 101.354 27.7141 101.354 29.9583C101.354 32.2215 102.386 33.5418 104.121 33.5418C105.856 33.5418 106.888 32.2215 106.888 29.9583ZM110.835 24.7356H112.878V26.5133H112.927C113.066 25.9581 113.391 25.4674 113.848 25.1238C114.305 24.7802 114.866 24.6045 115.437 24.6264C115.684 24.6255 115.93 24.6523 116.171 24.7063V26.7116C115.859 26.6163 115.534 26.5725 115.208 26.582C114.897 26.5694 114.587 26.6243 114.299 26.743C114.011 26.8617 113.753 27.0413 113.541 27.2696C113.329 27.4979 113.168 27.7694 113.071 28.0655C112.974 28.3616 112.942 28.6752 112.977 28.9849V35.1798H110.835V24.7356ZM126.044 32.1122C125.756 34.0082 123.911 35.3093 121.552 35.3093C118.517 35.3093 116.633 33.2737 116.633 30.0078C116.633 26.7319 118.527 24.6072 121.462 24.6072C124.348 24.6072 126.163 26.5922 126.163 29.7589V30.4933H118.795V30.6229C118.761 31.0073 118.809 31.3945 118.936 31.7589C119.063 32.1232 119.266 32.4564 119.531 32.7362C119.797 33.016 120.118 33.236 120.475 33.3817C120.832 33.5274 121.216 33.5954 121.601 33.5812C122.107 33.6287 122.615 33.5114 123.049 33.2467C123.483 32.982 123.821 32.5841 124.011 32.1122H126.044ZM118.805 28.9951H124.021C124.04 28.6495 123.988 28.3036 123.867 27.9792C123.746 27.6548 123.56 27.3589 123.32 27.1099C123.08 26.861 122.79 26.6645 122.471 26.5328C122.151 26.401 121.807 26.3368 121.462 26.3443C121.113 26.3422 120.767 26.4093 120.445 26.5416C120.122 26.674 119.829 26.869 119.582 27.1155C119.335 27.3619 119.139 27.6549 119.005 27.9775C118.872 28.3001 118.804 28.646 118.805 28.9951ZM43.5878 10.072C44.0367 10.0397 44.4872 10.1076 44.9068 10.2708C45.3264 10.434 45.7046 10.6883 46.0141 11.0155C46.3236 11.3427 46.5567 11.7346 46.6965 12.1629C46.8364 12.5912 46.8796 13.0452 46.823 13.4922C46.823 15.6912 45.6358 16.9553 43.5878 16.9553H41.1042V10.0719L43.5878 10.072ZM42.1721 15.9818H43.4685C43.7893 16.001 44.1103 15.9483 44.4082 15.8276C44.7061 15.7069 44.9734 15.5213 45.1906 15.2841C45.4078 15.047 45.5695 14.7644 45.6638 14.4568C45.7581 14.1492 45.7827 13.8245 45.7359 13.5062C45.7793 13.1892 45.7522 12.8664 45.6564 12.5611C45.5607 12.2558 45.3986 11.9755 45.1819 11.7403C44.9652 11.505 44.6992 11.3207 44.403 11.2004C44.1068 11.0802 43.7877 11.027 43.4685 11.0447H42.1721V15.9818ZM48.0293 14.3557C47.9967 14.0143 48.0357 13.6699 48.1438 13.3445C48.252 13.0191 48.4268 12.72 48.6572 12.4662C48.8876 12.2124 49.1685 12.0097 49.4817 11.8709C49.795 11.7322 50.1337 11.6605 50.4763 11.6605C50.8188 11.6605 51.1576 11.7322 51.4709 11.8709C51.7841 12.0097 52.0649 12.2124 52.2953 12.4662C52.5257 12.72 52.7006 13.0191 52.8087 13.3445C52.9169 13.6699 52.9559 14.0143 52.9232 14.3557C52.9566 14.6975 52.9181 15.0424 52.8103 15.3684C52.7025 15.6944 52.5277 15.9942 52.2973 16.2486C52.0668 16.5029 51.7857 16.7061 51.4721 16.8452C51.1585 16.9843 50.8193 17.0562 50.4763 17.0562C50.1333 17.0562 49.7941 16.9843 49.4804 16.8452C49.1668 16.7061 48.8857 16.5029 48.6553 16.2486C48.4248 15.9942 48.2501 15.6944 48.1423 15.3684C48.0345 15.0424 47.996 14.6975 48.0293 14.3557ZM51.87 14.3557C51.87 13.2297 51.3647 12.5712 50.478 12.5712C49.5879 12.5712 49.0872 13.2297 49.0872 14.3557C49.0872 15.4907 49.588 16.1441 50.478 16.1441C51.3647 16.1441 51.87 15.4862 51.87 14.3557ZM59.4287 16.9552H58.3663L57.2939 13.1294H57.2129L56.1451 16.9552H55.0929L53.6627 11.7606H54.7012L55.6308 15.7243H55.7073L56.7741 11.7606H57.7565L58.8233 15.7243H58.9043L59.8293 11.7606H60.8533L59.4287 16.9552ZM62.0562 11.7607H63.042V12.5859H63.1185C63.2484 12.2895 63.4673 12.041 63.7449 11.8751C64.0224 11.7092 64.3448 11.6341 64.667 11.6604C64.9195 11.6414 65.173 11.6795 65.4088 11.7719C65.6445 11.8643 65.8565 12.0086 66.029 12.1941C66.2015 12.3797 66.33 12.6017 66.4052 12.8437C66.4803 13.0858 66.5001 13.3416 66.463 13.5924V16.9551H65.439V13.8499C65.439 13.0151 65.0766 12.6 64.3193 12.6C64.1479 12.592 63.9767 12.6212 63.8177 12.6856C63.6586 12.75 63.5153 12.8481 63.3976 12.9731C63.2799 13.0981 63.1907 13.2472 63.1359 13.41C63.0811 13.5728 63.0621 13.7455 63.0803 13.9163V16.9552H62.0562V11.7607ZM68.0947 9.73285H69.1186V16.9552H68.0947V9.73285ZM70.5422 14.3557C70.5096 14.0143 70.5486 13.6698 70.6567 13.3444C70.7649 13.019 70.9398 12.7197 71.1702 12.4659C71.4006 12.2121 71.6815 12.0093 71.9948 11.8706C72.3081 11.7318 72.6469 11.6601 72.9895 11.6601C73.3321 11.6601 73.6709 11.7318 73.9842 11.8706C74.2975 12.0093 74.5784 12.2121 74.8088 12.4659C75.0392 12.7197 75.2141 13.019 75.3223 13.3444C75.4304 13.6698 75.4694 14.0143 75.4368 14.3557C75.4699 14.6974 75.4313 15.0423 75.3234 15.3682C75.2155 15.6941 75.0407 15.9938 74.8103 16.248C74.5798 16.5022 74.2987 16.7054 73.9852 16.8444C73.6716 16.9834 73.3324 17.0552 72.9895 17.0552C72.6466 17.0552 72.3074 16.9834 71.9938 16.8444C71.6803 16.7054 71.3992 16.5022 71.1687 16.248C70.9383 15.9938 70.7635 15.6941 70.6556 15.3682C70.5477 15.0423 70.5091 14.6974 70.5422 14.3557ZM74.3829 14.3557C74.3829 13.2297 73.8776 12.5712 72.9909 12.5712C72.1007 12.5712 71.6 13.2297 71.6 14.3557C71.6 15.4907 72.1008 16.1441 72.9909 16.1441C73.8776 16.1441 74.3829 15.4862 74.3829 14.3557ZM76.5148 15.4862C76.5148 14.5511 77.2102 14.0121 78.4447 13.9355L79.8501 13.8544V13.406C79.8501 12.8573 79.4879 12.5476 78.7879 12.5476C78.2163 12.5476 77.8201 12.7576 77.7065 13.1249H76.715C76.8197 12.2327 77.6581 11.6605 78.8352 11.6605C80.136 11.6605 80.8697 12.3088 80.8697 13.406V16.9552H79.8839V16.2252H79.8029C79.6385 16.487 79.4075 16.7005 79.1337 16.8438C78.8599 16.9871 78.553 17.0551 78.2444 17.0408C78.0266 17.0635 77.8064 17.0402 77.5981 16.9725C77.3898 16.9048 77.198 16.7941 77.0351 16.6476C76.8721 16.5012 76.7416 16.3222 76.652 16.1221C76.5624 15.9221 76.5156 15.7054 76.5148 15.4862ZM79.8501 15.0423V14.608L78.5831 14.6891C77.8685 14.737 77.5444 14.9804 77.5444 15.4382C77.5444 15.9058 77.9495 16.1779 78.5065 16.1779C78.6698 16.1944 78.8346 16.1779 78.9914 16.1294C79.1481 16.0808 79.2935 16.0012 79.4188 15.8953C79.5442 15.7893 79.647 15.6592 79.7211 15.5127C79.7952 15.3661 79.8391 15.2062 79.8501 15.0423ZM82.2156 14.3557C82.2156 12.7143 83.0584 11.6746 84.3694 11.6746C84.6937 11.6596 85.0155 11.7373 85.2973 11.8987C85.5791 12.0601 85.8092 12.2984 85.9606 12.5859H86.0371V9.73274H87.0611V16.9551H86.0799V16.1343H85.9989C85.8357 16.4198 85.5977 16.6552 85.3105 16.8149C85.0232 16.9747 84.6979 17.0528 84.3695 17.0407C83.0494 17.0407 82.2156 16.0008 82.2156 14.3556V14.3557ZM83.2734 14.3557C83.2734 15.4574 83.7922 16.1204 84.6597 16.1204C85.5228 16.1204 86.0563 15.4479 86.0563 14.3601C86.0563 13.2776 85.5172 12.5955 84.6597 12.5955C83.7977 12.5955 83.2734 13.2629 83.2734 14.3557ZM91.2979 14.3557C91.2653 14.0143 91.3043 13.6699 91.4124 13.3445C91.5205 13.0191 91.6954 12.72 91.9258 12.4662C92.1562 12.2124 92.437 12.0097 92.7503 11.8709C93.0635 11.7322 93.4023 11.6605 93.7449 11.6605C94.0874 11.6605 94.4262 11.7322 94.7394 11.8709C95.0527 12.0097 95.3335 12.2124 95.5639 12.4662C95.7943 12.72 95.9692 13.0191 96.0773 13.3445C96.1854 13.6699 96.2244 14.0143 96.1918 14.3557C96.2251 14.6975 96.1867 15.0424 96.0788 15.3684C95.971 15.6944 95.7963 15.9942 95.5658 16.2486C95.3354 16.5029 95.0543 16.7061 94.7407 16.8452C94.4271 16.9843 94.0879 17.0562 93.7449 17.0562C93.4018 17.0562 93.0626 16.9843 92.749 16.8452C92.4354 16.7061 92.1543 16.5029 91.9239 16.2486C91.6934 15.9942 91.5186 15.6944 91.4108 15.3684C91.303 15.0424 91.2646 14.6975 91.2979 14.3557ZM95.1386 14.3557C95.1386 13.2297 94.6333 12.5712 93.7466 12.5712C92.8564 12.5712 92.3557 13.2297 92.3557 14.3557C92.3557 15.4907 92.8565 16.1441 93.7466 16.1441C94.6333 16.1441 95.1386 15.4862 95.1386 14.3557ZM97.5658 11.7607H98.5516V12.5859H98.6281C98.7579 12.2895 98.9769 12.041 99.2545 11.8751C99.532 11.7092 99.8544 11.6341 100.177 11.6604C100.429 11.6414 100.683 11.6795 100.918 11.7719C101.154 11.8643 101.366 12.0086 101.539 12.1941C101.711 12.3797 101.84 12.6017 101.915 12.8437C101.99 13.0858 102.01 13.3416 101.973 13.5924V16.9551H100.949V13.8499C100.949 13.0151 100.586 12.6 99.8288 12.6C99.6574 12.592 99.4863 12.6212 99.3272 12.6856C99.1682 12.75 99.0249 12.8481 98.9072 12.9731C98.7895 13.0981 98.7002 13.2472 98.6455 13.41C98.5907 13.5728 98.5717 13.7455 98.5899 13.9163V16.9552H97.5659L97.5658 11.7607ZM107.759 10.4674V11.7844H108.883V12.6478H107.759V15.3188C107.759 15.863 107.983 16.1013 108.493 16.1013C108.623 16.1008 108.753 16.0929 108.883 16.0775V16.9315C108.699 16.9645 108.513 16.982 108.326 16.9839C107.187 16.9839 106.734 16.5828 106.734 15.5814V12.6478H105.91V11.7843H106.734V10.4676L107.759 10.4674ZM110.282 9.73285H111.297V12.5955H111.378C111.514 12.2963 111.739 12.0464 112.022 11.8799C112.305 11.7134 112.633 11.6383 112.96 11.6649C113.211 11.6512 113.462 11.6932 113.695 11.7878C113.928 11.8825 114.138 12.0274 114.309 12.2124C114.479 12.3974 114.607 12.6178 114.683 12.8579C114.759 13.098 114.781 13.3519 114.747 13.6015V16.9552H113.722V13.8544C113.722 13.0246 113.336 12.6045 112.612 12.6045C112.436 12.59 112.259 12.6142 112.094 12.6754C111.928 12.7367 111.778 12.8334 111.653 12.9588C111.529 13.0842 111.433 13.2354 111.373 13.4016C111.313 13.5679 111.29 13.7453 111.306 13.9214V16.9552H110.282V9.73285ZM120.718 15.5525C120.579 16.0273 120.277 16.438 119.866 16.7127C119.455 16.9875 118.961 17.1088 118.47 17.0554C118.128 17.0645 117.788 16.9989 117.474 16.8633C117.16 16.7278 116.879 16.5254 116.651 16.2703C116.423 16.0152 116.253 15.7135 116.153 15.3861C116.053 15.0587 116.026 14.7134 116.073 14.3743C116.027 14.0341 116.055 13.6881 116.155 13.3597C116.254 13.0313 116.423 12.7281 116.65 12.4708C116.877 12.2134 117.157 12.0079 117.47 11.8681C117.783 11.7283 118.122 11.6574 118.465 11.6604C119.909 11.6604 120.78 12.6478 120.78 14.279V14.6367H117.116V14.6942C117.1 14.8848 117.124 15.0767 117.186 15.2575C117.248 15.4383 117.348 15.6041 117.478 15.7442C117.608 15.8843 117.766 15.9956 117.942 16.0711C118.117 16.1465 118.307 16.1844 118.498 16.1823C118.743 16.2117 118.991 16.1676 119.211 16.0554C119.43 15.9433 119.612 15.7682 119.732 15.5525H120.718ZM117.116 13.8786H119.737C119.75 13.7042 119.726 13.5291 119.667 13.3645C119.608 13.1999 119.516 13.0494 119.396 12.9226C119.275 12.7959 119.13 12.6958 118.969 12.6286C118.808 12.5615 118.634 12.5289 118.459 12.5329C118.282 12.5307 118.107 12.564 117.943 12.6308C117.778 12.6977 117.629 12.7967 117.504 12.9221C117.379 13.0475 117.28 13.1968 117.213 13.361C117.147 13.5253 117.114 13.7013 117.116 13.8786Z" fill="black"/>
</svg>
